<svg width="200" height="200" viewBox="0 0 200 200" fill="none" xmlns="http://www.w3.org/2000/svg">
<rect width="200" height="200" rx="100" fill="#37B49B"/>
<path d="M11.2273 97V62.0909H23.4318C25.8636 62.0909 27.8693 62.5114 29.4489 63.3523C31.0284 64.1818 32.2045 65.3011 32.9773 66.7102C33.75 68.108 34.1364 69.6591 34.1364 71.3636C34.1364 72.8636 33.8693 74.1023 33.3352 75.0795C32.8125 76.0568 32.1193 76.8295 31.2557 77.3977C30.4034 77.9659 29.4773 78.3864 28.4773 78.6591V79C29.5455 79.0682 30.6193 79.4432 31.6989 80.125C32.7784 80.8068 33.6818 81.7841 34.4091 83.0568C35.1364 84.3295 35.5 85.8864 35.5 87.7273C35.5 89.4773 35.1023 91.0511 34.3068 92.4489C33.5114 93.8466 32.2557 94.9545 30.5398 95.7727C28.8239 96.5909 26.5909 97 23.8409 97H11.2273ZM15.4545 93.25H23.8409C26.6023 93.25 28.5625 92.7159 29.7216 91.6477C30.892 90.5682 31.4773 89.2614 31.4773 87.7273C31.4773 86.5455 31.1761 85.4545 30.5739 84.4545C29.9716 83.4432 29.1136 82.6364 28 82.0341C26.8864 81.4205 25.5682 81.1136 24.0455 81.1136H15.4545V93.25ZM15.4545 77.4318H23.2955C24.5682 77.4318 25.7159 77.1818 26.7386 76.6818C27.7727 76.1818 28.5909 75.4773 29.1932 74.5682C29.8068 73.6591 30.1136 72.5909 30.1136 71.3636C30.1136 69.8295 29.5795 68.5284 28.5114 67.4602C27.4432 66.3807 25.75 65.8409 23.4318 65.8409H15.4545V77.4318ZM52.9109 97.5455C50.5473 97.5455 48.4734 96.983 46.6893 95.858C44.9166 94.733 43.5303 93.1591 42.5303 91.1364C41.5416 89.1136 41.0473 86.75 41.0473 84.0455C41.0473 81.3182 41.5416 78.9375 42.5303 76.9034C43.5303 74.8693 44.9166 73.2898 46.6893 72.1648C48.4734 71.0398 50.5473 70.4773 52.9109 70.4773C55.2746 70.4773 57.3428 71.0398 59.1155 72.1648C60.8996 73.2898 62.2859 74.8693 63.2746 76.9034C64.2746 78.9375 64.7746 81.3182 64.7746 84.0455C64.7746 86.75 64.2746 89.1136 63.2746 91.1364C62.2859 93.1591 60.8996 94.733 59.1155 95.858C57.3428 96.983 55.2746 97.5455 52.9109 97.5455ZM52.9109 93.9318C54.7064 93.9318 56.1837 93.4716 57.3428 92.5511C58.5018 91.6307 59.3598 90.4205 59.9166 88.9205C60.4734 87.4205 60.7518 85.7955 60.7518 84.0455C60.7518 82.2955 60.4734 80.6648 59.9166 79.1534C59.3598 77.642 58.5018 76.4205 57.3428 75.4886C56.1837 74.5568 54.7064 74.0909 52.9109 74.0909C51.1155 74.0909 49.6382 74.5568 48.4791 75.4886C47.32 76.4205 46.4621 77.642 45.9053 79.1534C45.3484 80.6648 45.07 82.2955 45.07 84.0455C45.07 85.7955 45.3484 87.4205 45.9053 88.9205C46.4621 90.4205 47.32 91.6307 48.4791 92.5511C49.6382 93.4716 51.1155 93.9318 52.9109 93.9318ZM89.8346 76.6818L86.221 77.7045C85.9937 77.1023 85.6585 76.517 85.2153 75.9489C84.7835 75.3693 84.1926 74.892 83.4426 74.517C82.6926 74.142 81.7324 73.9545 80.5619 73.9545C78.9596 73.9545 77.6244 74.3239 76.5562 75.0625C75.4994 75.7898 74.971 76.7159 74.971 77.8409C74.971 78.8409 75.3346 79.6307 76.0619 80.2102C76.7892 80.7898 77.9256 81.2727 79.471 81.6591L83.3574 82.6136C85.6983 83.1818 87.4426 84.0511 88.5903 85.2216C89.7381 86.3807 90.3119 87.875 90.3119 89.7045C90.3119 91.2045 89.8801 92.5455 89.0165 93.7273C88.1642 94.9091 86.971 95.8409 85.4369 96.5227C83.9028 97.2045 82.1187 97.5455 80.0846 97.5455C77.4142 97.5455 75.204 96.9659 73.454 95.8068C71.704 94.6477 70.596 92.9545 70.1301 90.7273L73.9483 89.7727C74.3119 91.1818 74.9994 92.2386 76.0108 92.9432C77.0335 93.6477 78.3687 94 80.0165 94C81.8915 94 83.3801 93.6023 84.4824 92.8068C85.596 92 86.1528 91.0341 86.1528 89.9091C86.1528 89 85.8346 88.2386 85.1983 87.625C84.5619 87 83.5846 86.5341 82.2665 86.2273L77.9028 85.2045C75.5051 84.6364 73.7437 83.7557 72.6187 82.5625C71.5051 81.358 70.9483 79.8523 70.9483 78.0455C70.9483 76.5682 71.3631 75.2614 72.1926 74.125C73.0335 72.9886 74.1756 72.0966 75.6187 71.4489C77.0733 70.8011 78.721 70.4773 80.5619 70.4773C83.1528 70.4773 85.1869 71.0455 86.6642 72.1818C88.1528 73.3182 89.2096 74.8182 89.8346 76.6818ZM108.128 70.8182V74.2273H94.5595V70.8182H108.128ZM98.514 64.5455H102.537V89.5C102.537 90.6364 102.702 91.4886 103.031 92.0568C103.372 92.6136 103.804 92.9886 104.327 93.1818C104.861 93.3636 105.423 93.4545 106.014 93.4545C106.457 93.4545 106.821 93.4318 107.105 93.3864C107.389 93.3295 107.616 93.2841 107.787 93.25L108.605 96.8636C108.332 96.9659 107.952 97.0682 107.463 97.1705C106.974 97.2841 106.355 97.3409 105.605 97.3409C104.469 97.3409 103.355 97.0966 102.264 96.608C101.185 96.1193 100.287 95.375 99.5709 94.375C98.8663 93.375 98.514 92.1136 98.514 90.5909V64.5455ZM122.257 97.6136C120.598 97.6136 119.093 97.3011 117.74 96.6761C116.388 96.0398 115.314 95.125 114.519 93.9318C113.723 92.7273 113.326 91.2727 113.326 89.5682C113.326 88.0682 113.621 86.8523 114.212 85.9205C114.803 84.9773 115.593 84.2386 116.581 83.7045C117.57 83.1705 118.661 82.7727 119.854 82.5114C121.059 82.2386 122.269 82.0227 123.485 81.8636C125.076 81.6591 126.365 81.5057 127.354 81.4034C128.354 81.2898 129.081 81.1023 129.536 80.8409C130.002 80.5795 130.235 80.125 130.235 79.4773V79.3409C130.235 77.6591 129.774 76.3523 128.854 75.4205C127.945 74.4886 126.564 74.0227 124.712 74.0227C122.791 74.0227 121.286 74.4432 120.195 75.2841C119.104 76.125 118.337 77.0227 117.894 77.9773L114.076 76.6136C114.757 75.0227 115.666 73.7841 116.803 72.8977C117.951 72 119.201 71.375 120.553 71.0227C121.916 70.6591 123.257 70.4773 124.576 70.4773C125.416 70.4773 126.382 70.5795 127.473 70.7841C128.576 70.9773 129.638 71.3807 130.661 71.9943C131.695 72.608 132.553 73.5341 133.235 74.7727C133.916 76.0114 134.257 77.6705 134.257 79.75V97H130.235V93.4545H130.03C129.757 94.0227 129.303 94.6307 128.666 95.2784C128.03 95.9261 127.184 96.4773 126.127 96.9318C125.07 97.3864 123.78 97.6136 122.257 97.6136ZM122.871 94C124.462 94 125.803 93.6875 126.894 93.0625C127.996 92.4375 128.826 91.6307 129.382 90.642C129.951 89.6534 130.235 88.6136 130.235 87.5227V83.8409C130.064 84.0455 129.689 84.233 129.11 84.4034C128.541 84.5625 127.882 84.7045 127.132 84.8295C126.394 84.9432 125.672 85.0455 124.968 85.1364C124.274 85.2159 123.712 85.2841 123.28 85.3409C122.235 85.4773 121.257 85.6989 120.348 86.0057C119.451 86.3011 118.723 86.75 118.166 87.3523C117.621 87.9432 117.348 88.75 117.348 89.7727C117.348 91.1705 117.865 92.2273 118.899 92.9432C119.945 93.6477 121.269 94 122.871 94ZM151.86 97.5455C149.678 97.5455 147.752 96.9943 146.082 95.892C144.411 94.7784 143.104 93.2102 142.161 91.1875C141.218 89.1534 140.746 86.75 140.746 83.9773C140.746 81.2273 141.218 78.8409 142.161 76.8182C143.104 74.7955 144.417 73.233 146.099 72.1307C147.781 71.0284 149.724 70.4773 151.928 70.4773C153.633 70.4773 154.979 70.7614 155.968 71.3295C156.968 71.8864 157.729 72.5227 158.252 73.2386C158.786 73.9432 159.201 74.5227 159.496 74.9773H159.837V62.0909H163.86V97H159.974V92.9773H159.496C159.201 93.4545 158.781 94.0568 158.235 94.7841C157.69 95.5 156.911 96.142 155.9 96.7102C154.888 97.267 153.542 97.5455 151.86 97.5455ZM152.406 93.9318C154.019 93.9318 155.383 93.5114 156.496 92.6705C157.61 91.8182 158.457 90.642 159.036 89.142C159.616 87.6307 159.906 85.8864 159.906 83.9091C159.906 81.9545 159.621 80.2443 159.053 78.7784C158.485 77.3011 157.644 76.1534 156.531 75.3352C155.417 74.5057 154.042 74.0909 152.406 74.0909C150.701 74.0909 149.281 74.5284 148.144 75.4034C147.019 76.267 146.173 77.4432 145.604 78.9318C145.048 80.4091 144.769 82.0682 144.769 83.9091C144.769 85.7727 145.053 87.4659 145.621 88.9886C146.201 90.5 147.053 91.7045 148.178 92.6023C149.315 93.4886 150.724 93.9318 152.406 93.9318ZM190.706 76.6818L187.092 77.7045C186.865 77.1023 186.53 76.517 186.086 75.9489C185.655 75.3693 185.064 74.892 184.314 74.517C183.564 74.142 182.603 73.9545 181.433 73.9545C179.831 73.9545 178.495 74.3239 177.427 75.0625C176.37 75.7898 175.842 76.7159 175.842 77.8409C175.842 78.8409 176.206 79.6307 176.933 80.2102C177.66 80.7898 178.797 81.2727 180.342 81.6591L184.228 82.6136C186.569 83.1818 188.314 84.0511 189.461 85.2216C190.609 86.3807 191.183 87.875 191.183 89.7045C191.183 91.2045 190.751 92.5455 189.887 93.7273C189.035 94.9091 187.842 95.8409 186.308 96.5227C184.774 97.2045 182.99 97.5455 180.956 97.5455C178.285 97.5455 176.075 96.9659 174.325 95.8068C172.575 94.6477 171.467 92.9545 171.001 90.7273L174.819 89.7727C175.183 91.1818 175.87 92.2386 176.882 92.9432C177.905 93.6477 179.24 94 180.887 94C182.762 94 184.251 93.6023 185.353 92.8068C186.467 92 187.024 91.0341 187.024 89.9091C187.024 89 186.706 88.2386 186.069 87.625C185.433 87 184.456 86.5341 183.137 86.2273L178.774 85.2045C176.376 84.6364 174.615 83.7557 173.49 82.5625C172.376 81.358 171.819 79.8523 171.819 78.0455C171.819 76.5682 172.234 75.2614 173.064 74.125C173.905 72.9886 175.047 72.0966 176.49 71.4489C177.944 70.8011 179.592 70.4773 181.433 70.4773C184.024 70.4773 186.058 71.0455 187.535 72.1818C189.024 73.3182 190.081 74.8182 190.706 76.6818Z" fill="white"/>
<path d="M15.4318 132.455L15.3636 127.477H16.1818L27.6364 115.818H32.6136L20.4091 128.159H20.0682L15.4318 132.455ZM11.6818 142V107.091H15.7045V142H11.6818ZM28.3182 142L18.0909 129.045L20.9545 126.25L33.4318 142H28.3182ZM47.7234 142.545C45.3598 142.545 43.2859 141.983 41.5018 140.858C39.7291 139.733 38.3428 138.159 37.3428 136.136C36.3541 134.114 35.8598 131.75 35.8598 129.045C35.8598 126.318 36.3541 123.937 37.3428 121.903C38.3428 119.869 39.7291 118.29 41.5018 117.165C43.2859 116.04 45.3598 115.477 47.7234 115.477C50.0871 115.477 52.1553 116.04 53.928 117.165C55.7121 118.29 57.0984 119.869 58.0871 121.903C59.0871 123.937 59.5871 126.318 59.5871 129.045C59.5871 131.75 59.0871 134.114 58.0871 136.136C57.0984 138.159 55.7121 139.733 53.928 140.858C52.1553 141.983 50.0871 142.545 47.7234 142.545ZM47.7234 138.932C49.5189 138.932 50.9962 138.472 52.1553 137.551C53.3143 136.631 54.1723 135.42 54.7291 133.92C55.2859 132.42 55.5643 130.795 55.5643 129.045C55.5643 127.295 55.2859 125.665 54.7291 124.153C54.1723 122.642 53.3143 121.42 52.1553 120.489C50.9962 119.557 49.5189 119.091 47.7234 119.091C45.928 119.091 44.4507 119.557 43.2916 120.489C42.1325 121.42 41.2746 122.642 40.7178 124.153C40.1609 125.665 39.8825 127.295 39.8825 129.045C39.8825 130.795 40.1609 132.42 40.7178 133.92C41.2746 135.42 42.1325 136.631 43.2916 137.551C44.4507 138.472 45.928 138.932 47.7234 138.932ZM70.1244 107.091V142H66.1017V107.091H70.1244ZM81.889 107.091V142H77.8663V107.091H81.889ZM100.608 142.545C98.0855 142.545 95.9094 141.989 94.0798 140.875C92.2616 139.75 90.8582 138.182 89.8696 136.17C88.8923 134.148 88.4037 131.795 88.4037 129.114C88.4037 126.432 88.8923 124.068 89.8696 122.023C90.8582 119.966 92.2332 118.364 93.9946 117.216C95.7673 116.057 97.8355 115.477 100.199 115.477C101.563 115.477 102.909 115.705 104.239 116.159C105.568 116.614 106.779 117.352 107.87 118.375C108.96 119.386 109.83 120.727 110.478 122.398C111.125 124.068 111.449 126.125 111.449 128.568V130.273H91.2673V126.795H107.358C107.358 125.318 107.063 124 106.472 122.841C105.892 121.682 105.063 120.767 103.983 120.097C102.915 119.426 101.654 119.091 100.199 119.091C98.5969 119.091 97.2105 119.489 96.04 120.284C94.8809 121.068 93.9889 122.091 93.3639 123.352C92.7389 124.614 92.4264 125.966 92.4264 127.409V129.727C92.4264 131.705 92.7673 133.381 93.4491 134.756C94.1423 136.119 95.1025 137.159 96.3298 137.875C97.5571 138.58 98.9832 138.932 100.608 138.932C101.665 138.932 102.62 138.784 103.472 138.489C104.335 138.182 105.08 137.727 105.705 137.125C106.33 136.511 106.813 135.75 107.154 134.841L111.04 135.932C110.631 137.25 109.943 138.409 108.978 139.409C108.012 140.398 106.818 141.17 105.398 141.727C103.978 142.273 102.381 142.545 100.608 142.545ZM121.965 126.25V142H117.942V115.818H121.829V119.909H122.17C122.783 118.58 123.715 117.511 124.965 116.705C126.215 115.886 127.829 115.477 129.806 115.477C131.579 115.477 133.13 115.841 134.459 116.568C135.789 117.284 136.823 118.375 137.562 119.841C138.3 121.295 138.67 123.136 138.67 125.364V142H134.647V125.636C134.647 123.58 134.113 121.977 133.045 120.83C131.977 119.67 130.511 119.091 128.647 119.091C127.363 119.091 126.215 119.369 125.204 119.926C124.204 120.483 123.414 121.295 122.834 122.364C122.255 123.432 121.965 124.727 121.965 126.25Z" fill="white"/>
</svg>
